<svg xmlns="http://www.w3.org/2000/svg" xmlns:xlink="http://www.w3.org/1999/xlink" width="1920" zoomAndPan="magnify" viewBox="0 0 1440 675.000002" height="900" preserveAspectRatio="xMidYMid meet" version="1.0"><defs><g/><clipPath id="03b179d705"><path d="M 1.066406 97 L 1279 97 L 1279 577 L 1.066406 577 Z M 1.066406 97 " clip-rule="nonzero"/></clipPath><clipPath id="746f546b25"><rect x="0" width="1278" y="0" height="480"/></clipPath><clipPath id="e35d44fb81"><rect x="0" width="976" y="0" height="87"/></clipPath><clipPath id="2fced6a660"><path d="M 1258 170 L 1438.933594 170 L 1438.933594 265 L 1258 265 Z M 1258 170 " clip-rule="nonzero"/></clipPath><clipPath id="669f8a28df"><rect x="0" width="181" y="0" height="95"/></clipPath></defs><g clip-path="url(#03b179d705)"><g transform="matrix(1, 0, 0, 1, 1, 97)"><g clip-path="url(#746f546b25)"><g fill="#000000" fill-opacity="1"><g transform="translate(-11.820864, 345.172337)"><g><path d="M 82.75 1.125 C 70.769531 0.375 56.539062 0 40.0625 0 L 34.078125 0 L 34.078125 -249.921875 C 41.804688 -249.296875 47.296875 -248.984375 50.546875 -248.984375 L 58.21875 -248.984375 C 68.082031 -248.984375 76.257812 -249.484375 82.75 -250.484375 L 82.75 -150.703125 L 170.734375 -150.703125 L 170.734375 -249.921875 C 181.097656 -249.296875 191.175781 -248.984375 200.96875 -248.984375 C 210.769531 -248.984375 216.914062 -249.484375 219.40625 -250.484375 L 219.40625 1.125 C 213.414062 0.375 201.5625 0 183.84375 0 L 170.734375 0 L 170.734375 -105.78125 L 82.75 -105.78125 Z M 82.75 1.125 "/></g></g></g><g fill="#000000" fill-opacity="1"><g transform="translate(219.764889, 345.172337)"><g><path d="M 52.59375 -29.578125 C 41.238281 -40.429688 32.285156 -53.472656 25.734375 -68.703125 C 19.179688 -83.929688 15.90625 -100.625 15.90625 -118.78125 C 15.90625 -136.945312 18.960938 -154.140625 25.078125 -170.359375 C 31.203125 -186.585938 39.941406 -200.878906 51.296875 -213.234375 C 62.648438 -225.585938 76.375 -235.414062 92.46875 -242.71875 C 108.570312 -250.019531 126.609375 -253.671875 146.578125 -253.671875 C 181.023438 -253.671875 210.046875 -242.8125 233.640625 -221.09375 C 258.847656 -197.882812 271.453125 -166.554688 271.453125 -127.109375 C 271.453125 -88.921875 258.472656 -57.160156 232.515625 -31.828125 C 216.535156 -16.222656 197.503906 -5.488281 175.421875 0.375 C 164.554688 3.25 151.851562 4.6875 137.3125 4.6875 C 122.78125 4.6875 107.867188 1.691406 92.578125 -4.296875 C 77.285156 -10.296875 63.957031 -18.722656 52.59375 -29.578125 Z M 67.953125 -121.3125 C 67.953125 -109.707031 69.882812 -99.035156 73.75 -89.296875 C 77.625 -79.566406 82.992188 -71.207031 89.859375 -64.21875 C 104.460938 -49.488281 123.25 -42.125 146.21875 -42.125 C 168.050781 -42.125 185.582031 -49.175781 198.8125 -63.28125 C 212.289062 -77.882812 219.03125 -97.789062 219.03125 -123 C 219.03125 -146.707031 212.601562 -166.488281 199.75 -182.34375 C 185.894531 -199.3125 166.925781 -207.796875 142.84375 -207.796875 C 119.5 -207.796875 100.960938 -199.1875 87.234375 -181.96875 C 74.378906 -165.863281 67.953125 -145.644531 67.953125 -121.3125 Z M 67.953125 -121.3125 "/></g></g></g><g fill="#000000" fill-opacity="1"><g transform="translate(483.363973, 345.172337)"><g><path d="M 112.703125 -96.78125 C 108.953125 -96.53125 104.957031 -96.40625 100.71875 -96.40625 C 96.476562 -96.40625 90.175781 -96.71875 81.8125 -97.34375 L 81.8125 0 L 32.203125 0 L 32.203125 -250.296875 C 49.671875 -252.546875 71.132812 -253.671875 96.59375 -253.671875 C 131.289062 -253.671875 157.15625 -247.273438 174.1875 -234.484375 C 191.226562 -221.691406 199.75 -201.941406 199.75 -175.234375 C 199.75 -154.515625 191.953125 -136.789062 176.359375 -122.0625 C 171.234375 -117.320312 165.363281 -113.203125 158.75 -109.703125 L 196.9375 -29.203125 C 204.425781 -12.609375 210.171875 -2.75 214.171875 0.375 L 213.234375 1.3125 C 201.128906 -0.6875 182.097656 -0.625 156.140625 1.5 Z M 100.15625 -209.484375 C 93.789062 -209.484375 87.675781 -209.171875 81.8125 -208.546875 L 81.8125 -137.03125 C 87.925781 -136.164062 95.101562 -135.734375 103.34375 -135.734375 C 111.582031 -135.734375 118.507812 -136.445312 124.125 -137.875 C 129.738281 -139.3125 134.601562 -141.53125 138.71875 -144.53125 C 147.582031 -151.144531 152.015625 -161.066406 152.015625 -174.296875 C 152.015625 -187.523438 147.394531 -196.820312 138.15625 -202.1875 C 129.550781 -207.050781 116.882812 -209.484375 100.15625 -209.484375 Z M 100.15625 -209.484375 "/></g></g></g><g fill="#000000" fill-opacity="1"><g transform="translate(682.936396, 345.172337)"><g><path d="M 157.4375 -44.9375 C 165.175781 -44.9375 170.546875 -45.679688 173.546875 -47.171875 L 174.296875 -46.984375 L 172.421875 0 L 32.203125 0 L 32.203125 -250.296875 C 35.566406 -250.046875 39.3125 -249.859375 43.4375 -249.734375 L 56.53125 -249.359375 C 65.269531 -249.109375 74.757812 -248.984375 85 -248.984375 C 113.570312 -248.984375 141.835938 -249.484375 169.796875 -250.484375 C 168.421875 -239.503906 167.734375 -224.84375 167.734375 -206.5 C 167.734375 -204.5 167.859375 -203 168.109375 -202 L 167.734375 -201.4375 C 161.242188 -203.3125 152.007812 -204.25 140.03125 -204.25 L 81.0625 -204.25 L 81.0625 -156.5 L 125.4375 -156.5 C 139.164062 -156.5 147.398438 -156.875 150.140625 -157.625 L 150.703125 -111.390625 C 144.710938 -112.015625 136.972656 -112.328125 127.484375 -112.328125 L 81.0625 -112.328125 L 81.0625 -44.9375 Z M 157.4375 -44.9375 "/></g></g></g><g fill="#000000" fill-opacity="1"><g transform="translate(851.244327, 345.172337)"><g><path d="M 143.78125 -253.671875 C 167.113281 -253.671875 187.019531 -249.613281 203.5 -241.5 L 203.5 -184.21875 L 203.125 -183.84375 C 196.132812 -194.570312 181.40625 -201.6875 158.9375 -205.1875 C 152.320312 -206.300781 143.957031 -206.859375 133.84375 -206.859375 C 123.738281 -206.859375 113.816406 -204.957031 104.078125 -201.15625 C 94.347656 -197.351562 86.363281 -191.957031 80.125 -184.96875 C 68.019531 -171.363281 61.96875 -151.953125 61.96875 -126.734375 C 61.96875 -97.410156 69.644531 -75.570312 85 -61.21875 C 97.726562 -49.238281 114.578125 -43.25 135.546875 -43.25 C 159.253906 -43.25 178.472656 -48.300781 193.203125 -58.40625 C 198.566406 -62.03125 203.117188 -66.523438 206.859375 -71.890625 L 207.421875 -71.515625 L 207.421875 -19.09375 C 188.328125 -3.238281 162.617188 4.6875 130.296875 4.6875 C 92.234375 4.6875 62.40625 -7.421875 40.8125 -31.640625 C 20.09375 -54.722656 9.734375 -85.300781 9.734375 -123.375 C 9.734375 -163.6875 21.09375 -195.445312 43.8125 -218.65625 C 66.769531 -242 100.09375 -253.671875 143.78125 -253.671875 Z M 143.78125 -253.671875 "/></g></g></g><g fill="#000000" fill-opacity="1"><g transform="translate(1049.880745, 345.172337)"><g><path d="M 50.359375 1.5 C 39.628906 0.5 27.085938 0 12.734375 0 L -2.0625 0 L 79.375 -228.203125 C 83 -238.441406 84.8125 -244.398438 84.8125 -246.078125 C 84.8125 -247.765625 84.75 -248.796875 84.625 -249.171875 L 84.8125 -249.546875 C 92.914062 -249.171875 101.523438 -248.984375 110.640625 -248.984375 C 118.128906 -248.984375 127.113281 -249.109375 137.59375 -249.359375 L 137.78125 -248.984375 C 137.53125 -248.484375 137.40625 -247.800781 137.40625 -246.9375 C 137.40625 -244.5625 139.28125 -238.253906 143.03125 -228.015625 L 226.15625 0.5625 C 223.65625 0.4375 220.71875 0.375 217.34375 0.375 C 217.34375 0.375 214.097656 0.25 207.609375 0 C 204.492188 0 201.6875 0 199.1875 0 L 170.171875 0 L 152.578125 -53.921875 L 67.953125 -53.921875 Z M 137.96875 -98.84375 L 109.703125 -185.90625 L 82.1875 -98.84375 Z M 137.96875 -98.84375 "/></g></g></g></g></g></g><g transform="matrix(1, 0, 0, 1, 145, 474)"><g clip-path="url(#e35d44fb81)"><g fill="#4476cf" fill-opacity="1"><g transform="translate(0.267705, 68.896328)"><g><path d="M 8.90625 -4.046875 L 8.90625 -47.46875 L 4.484375 -47.46875 C 3.703125 -47.46875 3.015625 -47.757812 2.421875 -48.34375 C 1.835938 -48.9375 1.546875 -49.625 1.546875 -50.40625 C 1.546875 -51.195312 1.835938 -51.882812 2.421875 -52.46875 C 3.015625 -53.0625 3.703125 -53.359375 4.484375 -53.359375 L 39.453125 -53.359375 C 40.234375 -53.359375 40.914062 -53.0625 41.5 -52.46875 C 42.09375 -51.882812 42.390625 -51.195312 42.390625 -50.40625 L 42.390625 -40.109375 C 42.390625 -39.328125 42.09375 -38.640625 41.5 -38.046875 C 40.914062 -37.460938 40.226562 -37.171875 39.4375 -37.171875 C 38.65625 -37.171875 37.96875 -37.460938 37.375 -38.046875 C 36.789062 -38.640625 36.5 -39.328125 36.5 -40.109375 L 36.5 -47.46875 L 14.796875 -47.46875 L 14.796875 -29.0625 L 30.609375 -29.0625 L 30.609375 -32.015625 C 30.609375 -32.796875 30.898438 -33.476562 31.484375 -34.0625 C 32.078125 -34.65625 32.765625 -34.953125 33.546875 -34.953125 C 34.335938 -34.953125 35.023438 -34.65625 35.609375 -34.0625 C 36.203125 -33.476562 36.5 -32.796875 36.5 -32.015625 L 36.5 -20.234375 C 36.5 -19.453125 36.203125 -18.765625 35.609375 -18.171875 C 35.023438 -17.585938 34.335938 -17.296875 33.546875 -17.296875 C 32.765625 -17.296875 32.078125 -17.585938 31.484375 -18.171875 C 30.898438 -18.765625 30.609375 -19.453125 30.609375 -20.234375 L 30.609375 -23.1875 L 14.796875 -23.1875 L 14.796875 -4.046875 L 19.9375 -4.046875 C 20.726562 -4.046875 21.414062 -3.75 22 -3.15625 C 22.59375 -2.570312 22.890625 -1.882812 22.890625 -1.09375 C 22.890625 -0.3125 22.59375 0.367188 22 0.953125 C 21.414062 1.546875 20.726562 1.84375 19.9375 1.84375 L 4.484375 1.84375 C 3.703125 1.84375 3.015625 1.546875 2.421875 0.953125 C 1.835938 0.367188 1.546875 -0.3125 1.546875 -1.09375 C 1.546875 -1.882812 1.835938 -2.570312 2.421875 -3.15625 C 3.015625 -3.75 3.703125 -4.046875 4.484375 -4.046875 Z M 8.90625 -4.046875 "/></g></g></g><g fill="#4476cf" fill-opacity="1"><g transform="translate(42.575287, 68.896328)"><g><path d="M 30.609375 -33.484375 C 28.503906 -33.484375 26.59375 -33.191406 24.875 -32.609375 C 23.988281 -32.304688 23.148438 -31.957031 22.359375 -31.5625 C 21.578125 -31.175781 20.847656 -30.738281 20.171875 -30.25 C 18.796875 -29.21875 17.59375 -28.085938 16.5625 -26.859375 C 15.582031 -25.734375 14.75 -24.582031 14.0625 -23.40625 L 14.0625 -4.046875 L 19.203125 -4.046875 C 19.992188 -4.046875 20.679688 -3.75 21.265625 -3.15625 C 21.859375 -2.570312 22.15625 -1.882812 22.15625 -1.09375 C 22.15625 -0.3125 21.859375 0.367188 21.265625 0.953125 C 20.679688 1.546875 19.992188 1.84375 19.203125 1.84375 L 3.75 1.84375 C 2.96875 1.84375 2.28125 1.546875 1.6875 0.953125 C 1.101562 0.367188 0.8125 -0.3125 0.8125 -1.09375 C 0.8125 -1.882812 1.101562 -2.570312 1.6875 -3.15625 C 2.28125 -3.75 2.96875 -4.046875 3.75 -4.046875 L 8.171875 -4.046875 L 8.171875 -32.75 L 3.75 -32.75 C 2.96875 -32.75 2.28125 -33.039062 1.6875 -33.625 C 1.101562 -34.21875 0.8125 -34.90625 0.8125 -35.6875 C 0.8125 -36.476562 1.101562 -37.164062 1.6875 -37.75 C 2.28125 -38.34375 2.96875 -38.640625 3.75 -38.640625 L 11.109375 -38.640625 C 11.898438 -38.640625 12.585938 -38.34375 13.171875 -37.75 C 13.765625 -37.164062 14.0625 -36.476562 14.0625 -35.6875 L 14.0625 -32.671875 C 14.445312 -33.066406 14.863281 -33.4375 15.3125 -33.78125 C 15.945312 -34.320312 16.617188 -34.820312 17.328125 -35.28125 C 18.046875 -35.75 18.796875 -36.207031 19.578125 -36.65625 C 21.148438 -37.4375 22.84375 -38.097656 24.65625 -38.640625 C 26.519531 -39.128906 28.503906 -39.375 30.609375 -39.375 L 34.21875 -39.375 C 35.007812 -39.375 35.695312 -39.078125 36.28125 -38.484375 C 36.875 -37.898438 37.171875 -37.210938 37.171875 -36.421875 L 37.171875 -27.234375 C 37.171875 -26.441406 36.875 -25.75 36.28125 -25.15625 C 35.695312 -24.570312 35.007812 -24.28125 34.21875 -24.28125 C 33.4375 -24.28125 32.75 -24.570312 32.15625 -25.15625 C 31.570312 -25.75 31.28125 -26.441406 31.28125 -27.234375 L 31.28125 -33.484375 Z M 30.609375 -33.484375 "/></g></g></g><g fill="#4476cf" fill-opacity="1"><g transform="translate(79.879664, 68.896328)"><g><path d="M 7.4375 -3.3125 C 3.75 -7.238281 1.90625 -12.265625 1.90625 -18.390625 C 1.90625 -24.523438 3.75 -29.554688 7.4375 -33.484375 C 11.0625 -37.410156 15.84375 -39.375 21.78125 -39.375 C 27.664062 -39.375 32.453125 -37.410156 36.140625 -33.484375 C 39.816406 -29.554688 41.65625 -24.53125 41.65625 -18.40625 C 41.65625 -15.351562 41.203125 -12.5625 40.296875 -10.03125 C 39.390625 -7.507812 38.003906 -5.269531 36.140625 -3.3125 C 32.453125 0.613281 27.664062 2.578125 21.78125 2.578125 C 15.84375 2.578125 11.0625 0.613281 7.4375 -3.3125 Z M 7.796875 -18.40625 C 7.796875 -13.6875 9.046875 -9.976562 11.546875 -7.28125 C 14.097656 -4.632812 17.507812 -3.3125 21.78125 -3.3125 C 23.9375 -3.3125 25.847656 -3.640625 27.515625 -4.296875 C 29.191406 -4.960938 30.664062 -5.957031 31.9375 -7.28125 C 32.570312 -7.96875 33.125 -8.703125 33.59375 -9.484375 C 34.0625 -10.273438 34.453125 -11.132812 34.765625 -12.0625 C 35.085938 -13 35.332031 -13.992188 35.5 -15.046875 C 35.675781 -16.097656 35.765625 -17.21875 35.765625 -18.40625 C 35.765625 -20.707031 35.445312 -22.773438 34.8125 -24.609375 C 34.175781 -26.453125 33.21875 -28.0625 31.9375 -29.4375 C 30.664062 -30.8125 29.191406 -31.828125 27.515625 -32.484375 C 25.847656 -33.148438 23.9375 -33.484375 21.78125 -33.484375 C 17.507812 -33.484375 14.125 -32.132812 11.625 -29.4375 C 9.070312 -26.644531 7.796875 -22.96875 7.796875 -18.40625 Z M 7.796875 -18.40625 "/></g></g></g><g fill="#4476cf" fill-opacity="1"><g transform="translate(122.92308, 68.896328)"><g><path d="M 8.171875 -4.046875 L 8.171875 -32.75 L 3.75 -32.75 C 2.96875 -32.75 2.28125 -33.039062 1.6875 -33.625 C 1.101562 -34.21875 0.8125 -34.90625 0.8125 -35.6875 C 0.8125 -36.476562 1.101562 -37.164062 1.6875 -37.75 C 2.28125 -38.34375 2.96875 -38.640625 3.75 -38.640625 L 11.109375 -38.640625 C 11.898438 -38.640625 12.585938 -38.34375 13.171875 -37.75 C 13.765625 -37.164062 14.0625 -36.476562 14.0625 -35.6875 L 14.0625 -34.21875 C 17.59375 -37.65625 21.148438 -39.375 24.734375 -39.375 C 27.960938 -39.375 30.804688 -38.441406 33.265625 -36.578125 C 34.835938 -35.453125 36.085938 -33.957031 37.015625 -32.09375 C 37.609375 -32.820312 38.195312 -33.484375 38.78125 -34.078125 C 42.113281 -37.609375 45.769531 -39.375 49.75 -39.375 C 51.8125 -39.375 53.722656 -38.976562 55.484375 -38.1875 C 57.304688 -37.457031 58.851562 -36.359375 60.125 -34.890625 C 60.5625 -34.390625 60.960938 -33.867188 61.328125 -33.328125 C 61.703125 -32.796875 62.035156 -32.222656 62.328125 -31.609375 C 62.628906 -30.992188 62.890625 -30.34375 63.109375 -29.65625 C 63.328125 -28.96875 63.507812 -28.253906 63.65625 -27.515625 C 63.800781 -26.785156 63.910156 -26.023438 63.984375 -25.234375 C 64.054688 -24.453125 64.09375 -23.644531 64.09375 -22.8125 L 64.09375 -4.046875 L 68.515625 -4.046875 C 69.296875 -4.046875 69.976562 -3.75 70.5625 -3.15625 C 71.15625 -2.570312 71.453125 -1.882812 71.453125 -1.09375 C 71.453125 -0.3125 71.15625 0.367188 70.5625 0.953125 C 69.976562 1.546875 69.296875 1.84375 68.515625 1.84375 L 54.53125 1.84375 C 53.75 1.84375 53.0625 1.546875 52.46875 0.953125 C 51.882812 0.367188 51.59375 -0.3125 51.59375 -1.09375 C 51.59375 -1.882812 51.882812 -2.570312 52.46875 -3.15625 C 53.0625 -3.75 53.75 -4.046875 54.53125 -4.046875 L 58.21875 -4.046875 L 58.21875 -22.8125 C 58.21875 -26.34375 57.40625 -29.015625 55.78125 -30.828125 C 54.164062 -32.597656 52.15625 -33.484375 49.75 -33.484375 C 47.195312 -33.484375 44.617188 -31.988281 42.015625 -29 C 41.378906 -28.257812 40.789062 -27.472656 40.25 -26.640625 C 40.15625 -26.546875 40.054688 -26.421875 39.953125 -26.265625 C 39.859375 -26.117188 39.773438 -25.972656 39.703125 -25.828125 C 39.628906 -25.679688 39.539062 -25.546875 39.4375 -25.421875 C 39.34375 -25.304688 39.257812 -25.171875 39.1875 -25.015625 C 39.113281 -24.867188 39.050781 -24.75 39 -24.65625 C 39 -24.3125 39 -24.015625 39 -23.765625 C 39.050781 -23.566406 39.078125 -23.394531 39.078125 -23.25 C 39.078125 -23.101562 39.078125 -22.957031 39.078125 -22.8125 L 39.078125 -4.046875 L 42.765625 -4.046875 C 43.546875 -4.046875 44.226562 -3.75 44.8125 -3.15625 C 45.40625 -2.570312 45.703125 -1.882812 45.703125 -1.09375 C 45.703125 -0.3125 45.40625 0.367188 44.8125 0.953125 C 44.226562 1.546875 43.546875 1.84375 42.765625 1.84375 L 29.515625 1.84375 C 28.722656 1.84375 28.03125 1.546875 27.4375 0.953125 C 26.851562 0.367188 26.5625 -0.3125 26.5625 -1.09375 C 26.5625 -1.882812 26.851562 -2.570312 27.4375 -3.15625 C 28.03125 -3.75 28.722656 -4.046875 29.515625 -4.046875 L 33.1875 -4.046875 L 33.1875 -22.8125 C 33.1875 -24.625 32.976562 -26.191406 32.5625 -27.515625 C 32.144531 -28.847656 31.546875 -29.953125 30.765625 -30.828125 C 30.316406 -31.273438 29.875 -31.671875 29.4375 -32.015625 C 29 -32.359375 28.53125 -32.640625 28.03125 -32.859375 C 27.539062 -33.078125 27.023438 -33.234375 26.484375 -33.328125 C 25.953125 -33.429688 25.367188 -33.484375 24.734375 -33.484375 C 24.140625 -33.484375 23.546875 -33.394531 22.953125 -33.21875 C 22.367188 -33.050781 21.769531 -32.796875 21.15625 -32.453125 C 20.539062 -32.109375 19.898438 -31.65625 19.234375 -31.09375 C 18.578125 -30.53125 17.90625 -29.851562 17.21875 -29.0625 C 16.632812 -28.425781 16.070312 -27.753906 15.53125 -27.046875 C 14.988281 -26.335938 14.5 -25.613281 14.0625 -24.875 L 14.0625 -4.046875 L 17.734375 -4.046875 C 18.515625 -4.046875 19.203125 -3.75 19.796875 -3.15625 C 20.390625 -2.570312 20.6875 -1.882812 20.6875 -1.09375 C 20.6875 -0.3125 20.390625 0.367188 19.796875 0.953125 C 19.203125 1.546875 18.515625 1.84375 17.734375 1.84375 L 3.75 1.84375 C 2.96875 1.84375 2.28125 1.546875 1.6875 0.953125 C 1.101562 0.367188 0.8125 -0.3125 0.8125 -1.09375 C 0.8125 -1.882812 1.101562 -2.570312 1.6875 -3.15625 C 2.28125 -3.75 2.96875 -4.046875 3.75 -4.046875 Z M 8.171875 -4.046875 "/></g></g></g><g fill="#4476cf" fill-opacity="1"><g transform="translate(193.485006, 68.896328)"><g/></g></g><g fill="#4476cf" fill-opacity="1"><g transform="translate(214.087041, 68.896328)"><g><path d="M 14.34375 -53.359375 C 15.132812 -53.359375 15.820312 -53.0625 16.40625 -52.46875 C 17 -51.882812 17.296875 -51.195312 17.296875 -50.40625 C 17.296875 -49.625 17 -48.9375 16.40625 -48.34375 C 15.820312 -47.757812 15.132812 -47.46875 14.34375 -47.46875 L 11.484375 -47.46875 L 26.640625 -8.015625 L 41.796875 -47.46875 L 38.9375 -47.46875 C 38.144531 -47.46875 37.453125 -47.757812 36.859375 -48.34375 C 36.273438 -48.9375 35.984375 -49.625 35.984375 -50.40625 C 35.984375 -51.195312 36.273438 -51.882812 36.859375 -52.46875 C 37.453125 -53.0625 38.144531 -53.359375 38.9375 -53.359375 L 52.90625 -53.359375 C 53.695312 -53.359375 54.382812 -53.0625 54.96875 -52.46875 C 55.5625 -51.882812 55.859375 -51.195312 55.859375 -50.40625 C 55.859375 -49.625 55.5625 -48.9375 54.96875 -48.34375 C 54.382812 -47.757812 53.695312 -47.46875 52.90625 -47.46875 L 48.34375 -47.46875 L 30.03125 0.21875 C 29.78125 1.050781 29.265625 1.691406 28.484375 2.140625 C 27.890625 2.429688 27.273438 2.578125 26.640625 2.578125 C 26.003906 2.578125 25.390625 2.429688 24.796875 2.140625 C 24.015625 1.691406 23.5 1.050781 23.25 0.21875 L 4.9375 -47.46875 L 0.375 -47.46875 C -0.414062 -47.46875 -1.101562 -47.757812 -1.6875 -48.34375 C -2.28125 -48.9375 -2.578125 -49.625 -2.578125 -50.40625 C -2.578125 -51.195312 -2.28125 -51.882812 -1.6875 -52.46875 C -1.101562 -53.0625 -0.414062 -53.359375 0.375 -53.359375 Z M 14.34375 -53.359375 "/></g></g></g><g fill="#4476cf" fill-opacity="1"><g transform="translate(265.812532, 68.896328)"><g><path d="M 8.25 -4.046875 L 8.25 -32.75 L 3.828125 -32.75 C 3.046875 -32.75 2.359375 -33.039062 1.765625 -33.625 C 1.179688 -34.21875 0.890625 -34.90625 0.890625 -35.6875 C 0.890625 -36.476562 1.179688 -37.164062 1.765625 -37.75 C 2.359375 -38.34375 3.046875 -38.640625 3.828125 -38.640625 L 11.1875 -38.640625 C 11.96875 -38.640625 12.648438 -38.34375 13.234375 -37.75 C 13.828125 -37.164062 14.125 -36.476562 14.125 -35.6875 L 14.125 -4.046875 L 18.546875 -4.046875 C 19.328125 -4.046875 20.007812 -3.75 20.59375 -3.15625 C 21.1875 -2.570312 21.484375 -1.882812 21.484375 -1.09375 C 21.484375 -0.3125 21.1875 0.367188 20.59375 0.953125 C 20.007812 1.546875 19.328125 1.84375 18.546875 1.84375 L 3.828125 1.84375 C 3.046875 1.84375 2.359375 1.546875 1.765625 0.953125 C 1.179688 0.367188 0.890625 -0.3125 0.890625 -1.09375 C 0.890625 -1.882812 1.179688 -2.570312 1.765625 -3.15625 C 2.359375 -3.75 3.046875 -4.046875 3.828125 -4.046875 Z M 7.359375 -42.25 C 6.472656 -43.175781 6.03125 -44.300781 6.03125 -45.625 C 6.03125 -46.945312 6.472656 -48.078125 7.359375 -49.015625 C 8.335938 -49.941406 9.488281 -50.40625 10.8125 -50.40625 C 11.257812 -50.40625 11.691406 -50.34375 12.109375 -50.21875 C 12.523438 -50.101562 12.90625 -49.929688 13.25 -49.703125 C 13.59375 -49.484375 13.910156 -49.253906 14.203125 -49.015625 C 14.640625 -48.523438 14.984375 -47.992188 15.234375 -47.421875 C 15.484375 -46.859375 15.609375 -46.257812 15.609375 -45.625 C 15.609375 -44.300781 15.140625 -43.148438 14.203125 -42.171875 C 13.273438 -41.285156 12.144531 -40.84375 10.8125 -40.84375 C 9.488281 -40.84375 8.363281 -41.285156 7.4375 -42.171875 L 7.359375 -42.171875 Z M 7.359375 -42.25 "/></g></g></g><g fill="#4476cf" fill-opacity="1"><g transform="translate(286.856031, 68.896328)"><g><path d="M 21.34375 -3.3125 C 23.351562 -3.3125 25.09375 -3.484375 26.5625 -3.828125 C 28.039062 -4.171875 29.242188 -4.632812 30.171875 -5.21875 C 31.109375 -5.863281 31.769531 -6.53125 32.15625 -7.21875 C 32.550781 -7.90625 32.75 -8.6875 32.75 -9.5625 C 32.75 -10.445312 32.578125 -11.109375 32.234375 -11.546875 C 32.035156 -11.847656 31.800781 -12.117188 31.53125 -12.359375 C 31.257812 -12.609375 30.929688 -12.832031 30.546875 -13.03125 C 30.296875 -13.175781 30.046875 -13.296875 29.796875 -13.390625 C 29.554688 -13.492188 29.300781 -13.59375 29.03125 -13.6875 C 28.757812 -13.78125 28.460938 -13.875 28.140625 -13.96875 C 27.828125 -14.070312 27.5 -14.175781 27.15625 -14.28125 C 25.726562 -14.570312 24.207031 -14.863281 22.59375 -15.15625 C 20.925781 -15.40625 19.234375 -15.648438 17.515625 -15.890625 C 15.742188 -16.140625 14.050781 -16.484375 12.4375 -16.921875 C 11.164062 -17.316406 9.960938 -17.757812 8.828125 -18.25 C 7.597656 -18.84375 6.519531 -19.554688 5.59375 -20.390625 C 5.394531 -20.628906 5.1875 -20.867188 4.96875 -21.109375 C 4.75 -21.359375 4.539062 -21.617188 4.34375 -21.890625 C 4.144531 -22.160156 3.972656 -22.429688 3.828125 -22.703125 C 3.679688 -22.972656 3.535156 -23.253906 3.390625 -23.546875 C 3.085938 -24.179688 2.875 -24.867188 2.75 -25.609375 C 2.632812 -26.347656 2.578125 -27.132812 2.578125 -27.96875 C 2.578125 -29.4375 2.96875 -30.90625 3.75 -32.375 C 4.539062 -33.75 5.671875 -34.976562 7.140625 -36.0625 C 8.554688 -37.09375 10.273438 -37.898438 12.296875 -38.484375 C 14.253906 -39.078125 16.535156 -39.375 19.140625 -39.375 C 20.898438 -39.375 22.515625 -39.148438 23.984375 -38.703125 C 25.460938 -38.265625 26.816406 -37.726562 28.046875 -37.09375 C 28.628906 -36.800781 29.191406 -36.484375 29.734375 -36.140625 C 30.273438 -35.796875 30.765625 -35.453125 31.203125 -35.109375 C 31.253906 -35.054688 31.28125 -35.226562 31.28125 -35.625 L 31.28125 -35.6875 C 31.28125 -36.476562 31.570312 -37.164062 32.15625 -37.75 C 32.75 -38.34375 33.4375 -38.640625 34.21875 -38.640625 C 35.007812 -38.640625 35.695312 -38.34375 36.28125 -37.75 C 36.875 -37.164062 37.171875 -36.476562 37.171875 -35.6875 L 37.171875 -23.921875 C 37.171875 -23.128906 36.875 -22.4375 36.28125 -21.84375 C 35.695312 -21.257812 35.007812 -20.96875 34.21875 -20.96875 C 33.4375 -20.96875 32.75 -21.257812 32.15625 -21.84375 C 31.570312 -22.4375 31.28125 -23.128906 31.28125 -23.921875 L 31.28125 -26.9375 C 30.882812 -27.425781 30.46875 -27.914062 30.03125 -28.40625 C 29.488281 -29 28.898438 -29.515625 28.265625 -29.953125 C 27.179688 -30.878906 25.832031 -31.710938 24.21875 -32.453125 C 22.738281 -33.140625 21.046875 -33.484375 19.140625 -33.484375 C 17.171875 -33.484375 15.476562 -33.285156 14.0625 -32.890625 C 13.71875 -32.796875 13.382812 -32.695312 13.0625 -32.59375 C 12.738281 -32.5 12.441406 -32.390625 12.171875 -32.265625 C 11.910156 -32.148438 11.65625 -32.03125 11.40625 -31.90625 C 11.164062 -31.78125 10.945312 -31.644531 10.75 -31.5 C 9.957031 -30.957031 9.367188 -30.367188 8.984375 -29.734375 C 8.785156 -29.441406 8.648438 -29.144531 8.578125 -28.84375 C 8.503906 -28.550781 8.46875 -28.257812 8.46875 -27.96875 C 8.46875 -27.71875 8.476562 -27.46875 8.5 -27.21875 C 8.519531 -26.976562 8.554688 -26.757812 8.609375 -26.5625 C 8.660156 -26.363281 8.707031 -26.191406 8.75 -26.046875 C 8.800781 -25.898438 8.878906 -25.753906 8.984375 -25.609375 C 9.328125 -25.023438 9.84375 -24.507812 10.53125 -24.0625 C 10.875 -23.863281 11.203125 -23.675781 11.515625 -23.5 C 11.835938 -23.332031 12.207031 -23.1875 12.625 -23.0625 C 13.039062 -22.945312 13.441406 -22.816406 13.828125 -22.671875 C 15.253906 -22.273438 16.78125 -21.953125 18.40625 -21.703125 C 20.070312 -21.410156 21.757812 -21.144531 23.46875 -20.90625 C 23.8125 -20.851562 24.15625 -20.800781 24.5 -20.75 C 24.84375 -20.707031 25.1875 -20.644531 25.53125 -20.5625 C 25.875 -20.488281 26.207031 -20.425781 26.53125 -20.375 C 26.851562 -20.332031 27.1875 -20.273438 27.53125 -20.203125 C 27.875 -20.128906 28.210938 -20.039062 28.546875 -19.9375 C 29.191406 -19.789062 29.816406 -19.617188 30.421875 -19.421875 C 31.035156 -19.234375 31.640625 -19.015625 32.234375 -18.765625 C 32.867188 -18.523438 33.457031 -18.242188 34 -17.921875 C 34.539062 -17.597656 35.03125 -17.242188 35.46875 -16.859375 C 36.445312 -16.023438 37.21875 -14.992188 37.78125 -13.765625 C 38.351562 -12.535156 38.640625 -11.132812 38.640625 -9.5625 C 38.640625 -6.03125 37.117188 -3.085938 34.078125 -0.734375 C 31.128906 1.472656 26.882812 2.578125 21.34375 2.578125 C 19.71875 2.578125 18.144531 2.378906 16.625 1.984375 C 15.207031 1.640625 13.875 1.1875 12.625 0.625 C 11.375 0.0625 10.207031 -0.585938 9.125 -1.328125 C 9.03125 -1.367188 8.921875 -1.4375 8.796875 -1.53125 C 8.671875 -1.632812 8.5625 -1.738281 8.46875 -1.84375 L 8.46875 -1.109375 C 8.46875 -0.316406 8.171875 0.367188 7.578125 0.953125 C 6.992188 1.546875 6.304688 1.84375 5.515625 1.84375 C 4.734375 1.84375 4.046875 1.546875 3.453125 0.953125 C 2.867188 0.367188 2.578125 -0.316406 2.578125 -1.109375 L 2.578125 -12.875 C 2.578125 -13.664062 2.867188 -14.351562 3.453125 -14.9375 C 4.046875 -15.53125 4.734375 -15.828125 5.515625 -15.828125 C 6.304688 -15.828125 6.992188 -15.53125 7.578125 -14.9375 C 8.171875 -14.351562 8.46875 -13.664062 8.46875 -12.875 L 8.46875 -9.78125 C 9.34375 -8.65625 10.347656 -7.648438 11.484375 -6.765625 C 12.023438 -6.328125 12.632812 -5.898438 13.3125 -5.484375 C 14 -5.066406 14.765625 -4.6875 15.609375 -4.34375 C 17.171875 -3.65625 19.082031 -3.3125 21.34375 -3.3125 Z M 21.34375 -3.3125 "/></g></g></g><g fill="#4476cf" fill-opacity="1"><g transform="translate(327.618617, 68.896328)"><g><path d="M 8.25 -4.046875 L 8.25 -32.75 L 3.828125 -32.75 C 3.046875 -32.75 2.359375 -33.039062 1.765625 -33.625 C 1.179688 -34.21875 0.890625 -34.90625 0.890625 -35.6875 C 0.890625 -36.476562 1.179688 -37.164062 1.765625 -37.75 C 2.359375 -38.34375 3.046875 -38.640625 3.828125 -38.640625 L 11.1875 -38.640625 C 11.96875 -38.640625 12.648438 -38.34375 13.234375 -37.75 C 13.828125 -37.164062 14.125 -36.476562 14.125 -35.6875 L 14.125 -4.046875 L 18.546875 -4.046875 C 19.328125 -4.046875 20.007812 -3.75 20.59375 -3.15625 C 21.1875 -2.570312 21.484375 -1.882812 21.484375 -1.09375 C 21.484375 -0.3125 21.1875 0.367188 20.59375 0.953125 C 20.007812 1.546875 19.328125 1.84375 18.546875 1.84375 L 3.828125 1.84375 C 3.046875 1.84375 2.359375 1.546875 1.765625 0.953125 C 1.179688 0.367188 0.890625 -0.3125 0.890625 -1.09375 C 0.890625 -1.882812 1.179688 -2.570312 1.765625 -3.15625 C 2.359375 -3.75 3.046875 -4.046875 3.828125 -4.046875 Z M 7.359375 -42.25 C 6.472656 -43.175781 6.03125 -44.300781 6.03125 -45.625 C 6.03125 -46.945312 6.472656 -48.078125 7.359375 -49.015625 C 8.335938 -49.941406 9.488281 -50.40625 10.8125 -50.40625 C 11.257812 -50.40625 11.691406 -50.34375 12.109375 -50.21875 C 12.523438 -50.101562 12.90625 -49.929688 13.25 -49.703125 C 13.59375 -49.484375 13.910156 -49.253906 14.203125 -49.015625 C 14.640625 -48.523438 14.984375 -47.992188 15.234375 -47.421875 C 15.484375 -46.859375 15.609375 -46.257812 15.609375 -45.625 C 15.609375 -44.300781 15.140625 -43.148438 14.203125 -42.171875 C 13.273438 -41.285156 12.144531 -40.84375 10.8125 -40.84375 C 9.488281 -40.84375 8.363281 -41.285156 7.4375 -42.171875 L 7.359375 -42.171875 Z M 7.359375 -42.25 "/></g></g></g><g fill="#4476cf" fill-opacity="1"><g transform="translate(348.220532, 68.896328)"><g><path d="M 7.4375 -3.3125 C 3.75 -7.238281 1.90625 -12.265625 1.90625 -18.390625 C 1.90625 -24.523438 3.75 -29.554688 7.4375 -33.484375 C 11.0625 -37.410156 15.84375 -39.375 21.78125 -39.375 C 27.664062 -39.375 32.453125 -37.410156 36.140625 -33.484375 C 39.816406 -29.554688 41.65625 -24.53125 41.65625 -18.40625 C 41.65625 -15.351562 41.203125 -12.5625 40.296875 -10.03125 C 39.390625 -7.507812 38.003906 -5.269531 36.140625 -3.3125 C 32.453125 0.613281 27.664062 2.578125 21.78125 2.578125 C 15.84375 2.578125 11.0625 0.613281 7.4375 -3.3125 Z M 7.796875 -18.40625 C 7.796875 -13.6875 9.046875 -9.976562 11.546875 -7.28125 C 14.097656 -4.632812 17.507812 -3.3125 21.78125 -3.3125 C 23.9375 -3.3125 25.847656 -3.640625 27.515625 -4.296875 C 29.191406 -4.960938 30.664062 -5.957031 31.9375 -7.28125 C 32.570312 -7.96875 33.125 -8.703125 33.59375 -9.484375 C 34.0625 -10.273438 34.453125 -11.132812 34.765625 -12.0625 C 35.085938 -13 35.332031 -13.992188 35.5 -15.046875 C 35.675781 -16.097656 35.765625 -17.21875 35.765625 -18.40625 C 35.765625 -20.707031 35.445312 -22.773438 34.8125 -24.609375 C 34.175781 -26.453125 33.21875 -28.0625 31.9375 -29.4375 C 30.664062 -30.8125 29.191406 -31.828125 27.515625 -32.484375 C 25.847656 -33.148438 23.9375 -33.484375 21.78125 -33.484375 C 17.507812 -33.484375 14.125 -32.132812 11.625 -29.4375 C 9.070312 -26.644531 7.796875 -22.96875 7.796875 -18.40625 Z M 7.796875 -18.40625 "/></g></g></g><g fill="#4476cf" fill-opacity="1"><g transform="translate(391.263967, 68.896328)"><g><path d="M 8.171875 -4.046875 L 8.171875 -32.75 L 3.75 -32.75 C 2.96875 -32.75 2.28125 -33.039062 1.6875 -33.625 C 1.101562 -34.21875 0.8125 -34.90625 0.8125 -35.6875 C 0.8125 -36.476562 1.101562 -37.164062 1.6875 -37.75 C 2.28125 -38.34375 2.96875 -38.640625 3.75 -38.640625 L 11.109375 -38.640625 C 11.898438 -38.640625 12.585938 -38.34375 13.171875 -37.75 C 13.765625 -37.164062 14.0625 -36.476562 14.0625 -35.6875 L 14.0625 -34.140625 C 17.882812 -37.628906 22.050781 -39.375 26.5625 -39.375 C 31.613281 -39.375 35.585938 -37.925781 38.484375 -35.03125 C 39.910156 -33.5625 40.976562 -31.804688 41.6875 -29.765625 C 42.40625 -27.734375 42.765625 -25.414062 42.765625 -22.8125 L 42.765625 -4.046875 L 47.171875 -4.046875 C 47.953125 -4.046875 48.640625 -3.75 49.234375 -3.15625 C 49.828125 -2.570312 50.125 -1.882812 50.125 -1.09375 C 50.125 -0.3125 49.828125 0.367188 49.234375 0.953125 C 48.640625 1.546875 47.953125 1.84375 47.171875 1.84375 L 33.1875 1.84375 C 32.40625 1.84375 31.71875 1.546875 31.125 0.953125 C 30.539062 0.367188 30.25 -0.3125 30.25 -1.09375 C 30.25 -1.882812 30.539062 -2.570312 31.125 -3.15625 C 31.71875 -3.75 32.40625 -4.046875 33.1875 -4.046875 L 36.875 -4.046875 L 36.875 -22.8125 C 36.875 -24.09375 36.757812 -25.242188 36.53125 -26.265625 C 36.3125 -27.296875 36.019531 -28.179688 35.65625 -28.921875 C 35.289062 -29.660156 34.8125 -30.320312 34.21875 -30.90625 C 33.632812 -31.445312 32.972656 -31.910156 32.234375 -32.296875 C 31.492188 -32.691406 30.644531 -32.988281 29.6875 -33.1875 C 28.738281 -33.382812 27.695312 -33.484375 26.5625 -33.484375 C 25.78125 -33.484375 25.007812 -33.394531 24.25 -33.21875 C 23.488281 -33.050781 22.726562 -32.78125 21.96875 -32.40625 C 21.207031 -32.039062 20.429688 -31.578125 19.640625 -31.015625 C 18.859375 -30.453125 18.101562 -29.78125 17.375 -29 C 16.144531 -27.769531 15.039062 -26.394531 14.0625 -24.875 L 14.0625 -4.046875 L 17.734375 -4.046875 C 18.515625 -4.046875 19.203125 -3.75 19.796875 -3.15625 C 20.390625 -2.570312 20.6875 -1.882812 20.6875 -1.09375 C 20.6875 -0.3125 20.390625 0.367188 19.796875 0.953125 C 19.203125 1.546875 18.515625 1.84375 17.734375 1.84375 L 3.75 1.84375 C 2.96875 1.84375 2.28125 1.546875 1.6875 0.953125 C 1.101562 0.367188 0.8125 -0.3125 0.8125 -1.09375 C 0.8125 -1.882812 1.101562 -2.570312 1.6875 -3.15625 C 2.28125 -3.75 2.96875 -4.046875 3.75 -4.046875 Z M 8.171875 -4.046875 "/></g></g></g><g fill="#4476cf" fill-opacity="1"><g transform="translate(440.414517, 68.896328)"><g/></g></g><g fill="#4476cf" fill-opacity="1"><g transform="translate(461.016552, 68.896328)"><g><path d="M 0.078125 -50.40625 C 0.078125 -51.195312 0.367188 -51.882812 0.953125 -52.46875 C 1.546875 -53.0625 2.234375 -53.359375 3.015625 -53.359375 L 42.765625 -53.359375 C 43.546875 -53.359375 44.226562 -53.0625 44.8125 -52.46875 C 45.40625 -51.882812 45.703125 -51.195312 45.703125 -50.40625 L 45.703125 -39.734375 C 45.703125 -38.953125 45.40625 -38.265625 44.8125 -37.671875 C 44.226562 -37.085938 43.539062 -36.796875 42.75 -36.796875 C 41.96875 -36.796875 41.28125 -37.085938 40.6875 -37.671875 C 40.101562 -38.265625 39.8125 -38.953125 39.8125 -39.734375 L 39.8125 -47.46875 L 25.828125 -47.46875 L 25.828125 -4.046875 L 30.25 -4.046875 C 31.03125 -4.046875 31.710938 -3.75 32.296875 -3.15625 C 32.890625 -2.570312 33.1875 -1.882812 33.1875 -1.09375 C 33.1875 -0.3125 32.890625 0.367188 32.296875 0.953125 C 31.710938 1.546875 31.03125 1.84375 30.25 1.84375 L 15.53125 1.84375 C 14.738281 1.84375 14.046875 1.546875 13.453125 0.953125 C 12.867188 0.367188 12.578125 -0.3125 12.578125 -1.09375 C 12.578125 -1.882812 12.867188 -2.570312 13.453125 -3.15625 C 14.046875 -3.75 14.738281 -4.046875 15.53125 -4.046875 L 19.9375 -4.046875 L 19.9375 -47.46875 L 5.96875 -47.46875 L 5.96875 -39.734375 C 5.96875 -38.953125 5.671875 -38.265625 5.078125 -37.671875 C 4.484375 -37.085938 3.796875 -36.796875 3.015625 -36.796875 C 2.234375 -36.796875 1.546875 -37.085938 0.953125 -37.671875 C 0.367188 -38.265625 0.078125 -38.953125 0.078125 -39.734375 Z M 0.078125 -50.40625 "/></g></g></g><g fill="#4476cf" fill-opacity="1"><g transform="translate(501.778221, 68.896328)"><g><path d="M 7.4375 -3.3125 C 3.75 -7.238281 1.90625 -12.265625 1.90625 -18.390625 C 1.90625 -24.523438 3.75 -29.554688 7.4375 -33.484375 C 11.0625 -37.410156 15.84375 -39.375 21.78125 -39.375 C 27.664062 -39.375 32.453125 -37.410156 36.140625 -33.484375 C 39.816406 -29.554688 41.65625 -24.53125 41.65625 -18.40625 C 41.65625 -15.351562 41.203125 -12.5625 40.296875 -10.03125 C 39.390625 -7.507812 38.003906 -5.269531 36.140625 -3.3125 C 32.453125 0.613281 27.664062 2.578125 21.78125 2.578125 C 15.84375 2.578125 11.0625 0.613281 7.4375 -3.3125 Z M 7.796875 -18.40625 C 7.796875 -13.6875 9.046875 -9.976562 11.546875 -7.28125 C 14.097656 -4.632812 17.507812 -3.3125 21.78125 -3.3125 C 23.9375 -3.3125 25.847656 -3.640625 27.515625 -4.296875 C 29.191406 -4.960938 30.664062 -5.957031 31.9375 -7.28125 C 32.570312 -7.96875 33.125 -8.703125 33.59375 -9.484375 C 34.0625 -10.273438 34.453125 -11.132812 34.765625 -12.0625 C 35.085938 -13 35.332031 -13.992188 35.5 -15.046875 C 35.675781 -16.097656 35.765625 -17.21875 35.765625 -18.40625 C 35.765625 -20.707031 35.445312 -22.773438 34.8125 -24.609375 C 34.175781 -26.453125 33.21875 -28.0625 31.9375 -29.4375 C 30.664062 -30.8125 29.191406 -31.828125 27.515625 -32.484375 C 25.847656 -33.148438 23.9375 -33.484375 21.78125 -33.484375 C 17.507812 -33.484375 14.125 -32.132812 11.625 -29.4375 C 9.070312 -26.644531 7.796875 -22.96875 7.796875 -18.40625 Z M 7.796875 -18.40625 "/></g></g></g><g fill="#4476cf" fill-opacity="1"><g transform="translate(545.336808, 68.896328)"><g/></g></g><g fill="#4476cf" fill-opacity="1"><g transform="translate(565.938843, 68.896328)"><g><path d="M 9.640625 -5.453125 C 4.828125 -10.847656 2.421875 -17.617188 2.421875 -25.765625 C 2.421875 -33.953125 4.828125 -40.695312 9.640625 -46 C 12.046875 -48.695312 14.867188 -50.71875 18.109375 -52.0625 C 21.347656 -53.414062 24.953125 -54.09375 28.921875 -54.09375 C 36.867188 -54.09375 43.296875 -51.394531 48.203125 -46 C 53.015625 -40.695312 55.421875 -33.953125 55.421875 -25.765625 C 55.421875 -17.617188 53.015625 -10.847656 48.203125 -5.453125 C 43.296875 -0.0976562 36.867188 2.578125 28.921875 2.578125 C 20.972656 2.578125 14.546875 -0.0976562 9.640625 -5.453125 Z M 14.0625 -41.953125 C 10.226562 -37.734375 8.3125 -32.332031 8.3125 -25.75 C 8.3125 -19.175781 10.226562 -13.78125 14.0625 -9.5625 C 17.789062 -5.394531 22.742188 -3.3125 28.921875 -3.3125 C 35.097656 -3.3125 40.050781 -5.394531 43.78125 -9.5625 C 47.613281 -13.78125 49.53125 -19.179688 49.53125 -25.765625 C 49.53125 -29.097656 49.050781 -32.097656 48.09375 -34.765625 C 47.132812 -37.441406 45.695312 -39.835938 43.78125 -41.953125 C 41.914062 -44.054688 39.753906 -45.625 37.296875 -46.65625 C 34.847656 -47.6875 32.054688 -48.203125 28.921875 -48.203125 C 22.742188 -48.203125 17.789062 -46.117188 14.0625 -41.953125 Z M 14.0625 -41.953125 "/></g></g></g><g fill="#4476cf" fill-opacity="1"><g transform="translate(623.771668, 68.896328)"><g><path d="M 22 -4.046875 C 27.15625 -4.046875 31.109375 -5.273438 33.859375 -7.734375 C 36.503906 -10.085938 37.828125 -13.519531 37.828125 -18.03125 C 37.828125 -23.226562 36.695312 -27.128906 34.4375 -29.734375 C 32.226562 -32.234375 29.3125 -33.484375 25.6875 -33.484375 C 24.800781 -33.484375 23.953125 -33.394531 23.140625 -33.21875 C 22.335938 -33.050781 21.53125 -32.78125 20.71875 -32.40625 C 19.90625 -32.039062 19.101562 -31.578125 18.3125 -31.015625 C 17.53125 -30.453125 16.773438 -29.78125 16.046875 -29 C 15.304688 -28.3125 14.664062 -27.570312 14.125 -26.78125 C 13.882812 -26.488281 13.648438 -26.171875 13.421875 -25.828125 C 13.203125 -25.484375 13 -25.164062 12.8125 -24.875 L 12.8125 -4.046875 Z M 12.8125 1.84375 L 12.8125 10.671875 L 17.953125 10.671875 C 18.742188 10.671875 19.429688 10.960938 20.015625 11.546875 C 20.609375 12.140625 20.90625 12.828125 20.90625 13.609375 C 20.90625 14.398438 20.609375 15.085938 20.015625 15.671875 C 19.429688 16.265625 18.742188 16.5625 17.953125 16.5625 L 2.5 16.5625 C 1.71875 16.5625 1.03125 16.265625 0.4375 15.671875 C -0.144531 15.085938 -0.4375 14.398438 -0.4375 13.609375 C -0.4375 12.828125 -0.144531 12.140625 0.4375 11.546875 C 1.03125 10.960938 1.71875 10.671875 2.5 10.671875 L 6.921875 10.671875 L 6.921875 -32.75 L 2.5 -32.75 C 1.71875 -32.75 1.03125 -33.039062 0.4375 -33.625 C -0.144531 -34.21875 -0.4375 -34.90625 -0.4375 -35.6875 C -0.4375 -36.476562 -0.144531 -37.164062 0.4375 -37.75 C 1.03125 -38.34375 1.71875 -38.640625 2.5 -38.640625 L 9.859375 -38.640625 C 10.648438 -38.640625 11.335938 -38.34375 11.921875 -37.75 C 12.515625 -37.164062 12.8125 -36.476562 12.8125 -35.6875 L 12.8125 -34.140625 C 13.882812 -35.128906 15.109375 -36.039062 16.484375 -36.875 C 19.179688 -38.539062 22.25 -39.375 25.6875 -39.375 C 28.382812 -39.375 30.835938 -38.878906 33.046875 -37.890625 C 35.253906 -36.910156 37.191406 -35.46875 38.859375 -33.5625 C 40.472656 -31.644531 41.6875 -29.382812 42.5 -26.78125 C 43.3125 -24.1875 43.71875 -21.269531 43.71875 -18.03125 C 43.71875 -16.507812 43.59375 -15.0625 43.34375 -13.6875 C 43.101562 -12.3125 42.738281 -11.007812 42.25 -9.78125 C 41.21875 -7.28125 39.742188 -5.171875 37.828125 -3.453125 C 36.890625 -2.578125 35.84375 -1.816406 34.6875 -1.171875 C 33.539062 -0.535156 32.304688 0.0234375 30.984375 0.515625 C 28.335938 1.398438 25.34375 1.84375 22 1.84375 Z M 12.8125 1.84375 "/></g></g></g><g fill="#4476cf" fill-opacity="1"><g transform="translate(669.537598, 68.896328)"><g><path d="M 21.125 -3.3125 C 21.707031 -3.3125 22.269531 -3.332031 22.8125 -3.375 C 23.351562 -3.425781 23.851562 -3.488281 24.3125 -3.5625 C 24.78125 -3.644531 25.238281 -3.734375 25.6875 -3.828125 C 26.957031 -4.171875 28.070312 -4.570312 29.03125 -5.03125 C 29.988281 -5.5 30.8125 -6.003906 31.5 -6.546875 C 32.238281 -7.140625 32.851562 -7.679688 33.34375 -8.171875 C 34.320312 -9.003906 35.300781 -9.175781 36.28125 -8.6875 C 36.71875 -8.488281 37.132812 -8.191406 37.53125 -7.796875 L 37.53125 -7.734375 L 37.609375 -7.65625 C 37.703125 -7.507812 37.796875 -7.359375 37.890625 -7.203125 C 37.992188 -7.054688 38.066406 -6.910156 38.109375 -6.765625 C 38.160156 -6.617188 38.210938 -6.457031 38.265625 -6.28125 C 38.316406 -6.113281 38.34375 -5.941406 38.34375 -5.765625 C 38.34375 -5.597656 38.328125 -5.441406 38.296875 -5.296875 C 38.273438 -5.148438 38.238281 -4.988281 38.1875 -4.8125 C 38.144531 -4.644531 38.070312 -4.488281 37.96875 -4.34375 C 37.875 -4.195312 37.773438 -4.050781 37.671875 -3.90625 C 37.578125 -3.757812 37.457031 -3.632812 37.3125 -3.53125 C 36.96875 -3.238281 36.585938 -2.921875 36.171875 -2.578125 C 35.753906 -2.234375 35.328125 -1.890625 34.890625 -1.546875 C 33.898438 -0.804688 32.742188 -0.144531 31.421875 0.4375 C 30.984375 0.632812 30.519531 0.832031 30.03125 1.03125 C 29.539062 1.226562 29.035156 1.398438 28.515625 1.546875 C 28.003906 1.691406 27.476562 1.835938 26.9375 1.984375 C 26.050781 2.179688 25.128906 2.328125 24.171875 2.421875 C 23.210938 2.523438 22.195312 2.578125 21.125 2.578125 C 15.382812 2.578125 10.75 0.613281 7.21875 -3.3125 C 3.726562 -7.332031 1.984375 -12.359375 1.984375 -18.390625 C 1.984375 -24.429688 3.726562 -29.460938 7.21875 -33.484375 C 10.75 -37.410156 15.382812 -39.375 21.125 -39.375 C 26.664062 -39.375 31.238281 -37.566406 34.84375 -33.953125 C 38.445312 -30.347656 40.25 -26.019531 40.25 -20.96875 L 40.25 -19.875 C 40.25 -19.332031 40.160156 -18.800781 39.984375 -18.28125 C 39.816406 -17.769531 39.535156 -17.316406 39.140625 -16.921875 C 38.753906 -16.535156 38.300781 -16.253906 37.78125 -16.078125 C 37.269531 -15.910156 36.742188 -15.828125 36.203125 -15.828125 L 8.015625 -15.828125 C 8.410156 -12.335938 9.613281 -9.488281 11.625 -7.28125 C 14.03125 -4.632812 17.195312 -3.3125 21.125 -3.3125 Z M 8.09375 -21.703125 L 34.375 -21.703125 C 34.175781 -24.796875 32.898438 -27.472656 30.546875 -29.734375 C 28.085938 -32.234375 24.945312 -33.484375 21.125 -33.484375 C 19.113281 -33.484375 17.332031 -33.148438 15.78125 -32.484375 C 14.238281 -31.828125 12.851562 -30.785156 11.625 -29.359375 C 9.707031 -27.253906 8.53125 -24.703125 8.09375 -21.703125 Z M 8.09375 -21.703125 "/></g></g></g><g fill="#4476cf" fill-opacity="1"><g transform="translate(711.25674, 68.896328)"><g><path d="M 30.609375 -33.484375 C 28.503906 -33.484375 26.59375 -33.191406 24.875 -32.609375 C 23.988281 -32.304688 23.148438 -31.957031 22.359375 -31.5625 C 21.578125 -31.175781 20.847656 -30.738281 20.171875 -30.25 C 18.796875 -29.21875 17.59375 -28.085938 16.5625 -26.859375 C 15.582031 -25.734375 14.75 -24.582031 14.0625 -23.40625 L 14.0625 -4.046875 L 19.203125 -4.046875 C 19.992188 -4.046875 20.679688 -3.75 21.265625 -3.15625 C 21.859375 -2.570312 22.15625 -1.882812 22.15625 -1.09375 C 22.15625 -0.3125 21.859375 0.367188 21.265625 0.953125 C 20.679688 1.546875 19.992188 1.84375 19.203125 1.84375 L 3.75 1.84375 C 2.96875 1.84375 2.28125 1.546875 1.6875 0.953125 C 1.101562 0.367188 0.8125 -0.3125 0.8125 -1.09375 C 0.8125 -1.882812 1.101562 -2.570312 1.6875 -3.15625 C 2.28125 -3.75 2.96875 -4.046875 3.75 -4.046875 L 8.171875 -4.046875 L 8.171875 -32.75 L 3.75 -32.75 C 2.96875 -32.75 2.28125 -33.039062 1.6875 -33.625 C 1.101562 -34.21875 0.8125 -34.90625 0.8125 -35.6875 C 0.8125 -36.476562 1.101562 -37.164062 1.6875 -37.75 C 2.28125 -38.34375 2.96875 -38.640625 3.75 -38.640625 L 11.109375 -38.640625 C 11.898438 -38.640625 12.585938 -38.34375 13.171875 -37.75 C 13.765625 -37.164062 14.0625 -36.476562 14.0625 -35.6875 L 14.0625 -32.671875 C 14.445312 -33.066406 14.863281 -33.4375 15.3125 -33.78125 C 15.945312 -34.320312 16.617188 -34.820312 17.328125 -35.28125 C 18.046875 -35.75 18.796875 -36.207031 19.578125 -36.65625 C 21.148438 -37.4375 22.84375 -38.097656 24.65625 -38.640625 C 26.519531 -39.128906 28.503906 -39.375 30.609375 -39.375 L 34.21875 -39.375 C 35.007812 -39.375 35.695312 -39.078125 36.28125 -38.484375 C 36.875 -37.898438 37.171875 -37.210938 37.171875 -36.421875 L 37.171875 -27.234375 C 37.171875 -26.441406 36.875 -25.75 36.28125 -25.15625 C 35.695312 -24.570312 35.007812 -24.28125 34.21875 -24.28125 C 33.4375 -24.28125 32.75 -24.570312 32.15625 -25.15625 C 31.570312 -25.75 31.28125 -26.441406 31.28125 -27.234375 L 31.28125 -33.484375 Z M 30.609375 -33.484375 "/></g></g></g><g fill="#4476cf" fill-opacity="1"><g transform="translate(748.561038, 68.896328)"><g><path d="M 29.140625 -17.296875 L 17.734375 -17.296875 C 13.910156 -17.296875 11.140625 -16.609375 9.421875 -15.234375 C 7.847656 -13.910156 7.0625 -12.265625 7.0625 -10.296875 C 7.0625 -8.191406 7.796875 -6.523438 9.265625 -5.296875 C 10.785156 -3.972656 13.117188 -3.3125 16.265625 -3.3125 C 19.796875 -3.3125 23.007812 -4.785156 25.90625 -7.734375 C 26.050781 -7.828125 26.1875 -7.945312 26.3125 -8.09375 C 26.4375 -8.238281 26.554688 -8.375 26.671875 -8.5 C 26.796875 -8.625 26.921875 -8.757812 27.046875 -8.90625 C 27.171875 -9.050781 27.289062 -9.195312 27.40625 -9.34375 C 27.53125 -9.488281 27.644531 -9.632812 27.75 -9.78125 C 27.988281 -10.082031 28.226562 -10.414062 28.46875 -10.78125 C 28.71875 -11.144531 28.941406 -11.523438 29.140625 -11.921875 Z M 19.5 -39.375 C 21.757812 -39.375 23.832031 -39.039062 25.71875 -38.375 C 27.601562 -37.71875 29.257812 -36.703125 30.6875 -35.328125 C 33.582031 -32.671875 35.03125 -29.359375 35.03125 -25.390625 L 35.03125 -4.046875 L 39.453125 -4.046875 C 40.234375 -4.046875 40.914062 -3.75 41.5 -3.15625 C 42.09375 -2.570312 42.390625 -1.882812 42.390625 -1.09375 C 42.390625 -0.3125 42.09375 0.367188 41.5 0.953125 C 40.914062 1.546875 40.234375 1.84375 39.453125 1.84375 L 32.09375 1.84375 C 31.300781 1.84375 30.609375 1.546875 30.015625 0.953125 C 29.429688 0.367188 29.140625 -0.316406 29.140625 -1.109375 L 29.140625 -2.578125 C 28.066406 -1.640625 26.816406 -0.734375 25.390625 0.140625 C 22.640625 1.765625 19.597656 2.578125 16.265625 2.578125 C 13.910156 2.578125 11.800781 2.257812 9.9375 1.625 C 8.070312 0.976562 6.5 0.09375 5.21875 -1.03125 C 3.851562 -2.207031 2.828125 -3.601562 2.140625 -5.21875 C 1.492188 -6.789062 1.171875 -8.484375 1.171875 -10.296875 C 1.171875 -12.117188 1.5625 -13.828125 2.34375 -15.421875 C 3.132812 -17.015625 4.289062 -18.398438 5.8125 -19.578125 C 7.238281 -20.648438 8.957031 -21.53125 10.96875 -22.21875 C 12.976562 -22.863281 15.234375 -23.1875 17.734375 -23.1875 L 29.140625 -23.1875 L 29.140625 -25.390625 C 29.140625 -26.515625 28.921875 -27.566406 28.484375 -28.546875 C 28.335938 -28.796875 28.203125 -29.03125 28.078125 -29.25 C 27.953125 -29.46875 27.800781 -29.6875 27.625 -29.90625 C 27.457031 -30.132812 27.285156 -30.34375 27.109375 -30.53125 C 26.941406 -30.726562 26.757812 -30.90625 26.5625 -31.0625 C 26.175781 -31.445312 25.722656 -31.773438 25.203125 -32.046875 C 24.691406 -32.316406 24.113281 -32.578125 23.46875 -32.828125 C 22.289062 -33.265625 20.96875 -33.484375 19.5 -33.484375 C 16.800781 -33.484375 14.570312 -33.113281 12.8125 -32.375 C 10.945312 -31.539062 9.570312 -30.78125 8.6875 -30.09375 C 8.09375 -29.601562 7.378906 -29.40625 6.546875 -29.5 C 5.710938 -29.601562 5.050781 -29.972656 4.5625 -30.609375 C 4.070312 -31.347656 3.875 -32.082031 3.96875 -32.8125 C 4.070312 -33.550781 4.46875 -34.191406 5.15625 -34.734375 C 6.570312 -35.859375 8.4375 -36.914062 10.75 -37.90625 C 13.195312 -38.882812 16.113281 -39.375 19.5 -39.375 Z M 19.5 -39.375 "/></g></g></g><g fill="#4476cf" fill-opacity="1"><g transform="translate(790.648077, 68.896328)"><g><path d="M 19.5 -3.3125 C 20.289062 -3.3125 21.003906 -3.394531 21.640625 -3.5625 C 22.273438 -3.738281 22.835938 -3.972656 23.328125 -4.265625 C 23.765625 -4.515625 24.164062 -4.773438 24.53125 -5.046875 C 24.90625 -5.316406 25.238281 -5.570312 25.53125 -5.8125 C 25.832031 -6.0625 26.101562 -6.28125 26.34375 -6.46875 C 27.03125 -7.15625 27.765625 -7.453125 28.546875 -7.359375 C 29.234375 -7.304688 29.875 -7.007812 30.46875 -6.46875 L 30.46875 -6.40625 C 31.050781 -5.71875 31.304688 -4.976562 31.234375 -4.1875 C 31.160156 -3.40625 30.859375 -2.722656 30.328125 -2.140625 C 30.078125 -1.941406 29.816406 -1.71875 29.546875 -1.46875 C 29.273438 -1.226562 28.992188 -0.984375 28.703125 -0.734375 C 28.015625 -0.148438 27.21875 0.375 26.3125 0.84375 C 25.40625 1.3125 24.410156 1.71875 23.328125 2.0625 C 22.148438 2.40625 20.875 2.578125 19.5 2.578125 C 15.53125 2.578125 12.367188 1.273438 10.015625 -1.328125 C 7.753906 -3.878906 6.625 -7.484375 6.625 -12.140625 L 6.625 -32.75 L 2.203125 -32.75 C 1.421875 -32.75 0.734375 -33.039062 0.140625 -33.625 C -0.441406 -34.21875 -0.734375 -34.90625 -0.734375 -35.6875 C -0.734375 -36.476562 -0.441406 -37.164062 0.140625 -37.75 C 0.734375 -38.34375 1.421875 -38.640625 2.203125 -38.640625 L 6.625 -38.640625 L 6.625 -50.40625 C 6.625 -51.195312 6.914062 -51.882812 7.5 -52.46875 C 8.09375 -53.0625 8.78125 -53.359375 9.5625 -53.359375 C 10.351562 -53.359375 11.039062 -53.0625 11.625 -52.46875 C 12.21875 -51.882812 12.515625 -51.195312 12.515625 -50.40625 L 12.515625 -38.640625 L 24.28125 -38.640625 C 25.070312 -38.640625 25.757812 -38.34375 26.34375 -37.75 C 26.9375 -37.164062 27.234375 -36.476562 27.234375 -35.6875 C 27.234375 -34.90625 26.9375 -34.21875 26.34375 -33.625 C 25.757812 -33.039062 25.070312 -32.75 24.28125 -32.75 L 12.515625 -32.75 L 12.515625 -12.140625 C 12.515625 -9.046875 13.125 -6.789062 14.34375 -5.375 C 15.519531 -4 17.238281 -3.3125 19.5 -3.3125 Z M 19.5 -3.3125 "/></g></g></g><g fill="#4476cf" fill-opacity="1"><g transform="translate(820.300244, 68.896328)"><g><path d="M 8.25 -4.046875 L 8.25 -32.75 L 3.828125 -32.75 C 3.046875 -32.75 2.359375 -33.039062 1.765625 -33.625 C 1.179688 -34.21875 0.890625 -34.90625 0.890625 -35.6875 C 0.890625 -36.476562 1.179688 -37.164062 1.765625 -37.75 C 2.359375 -38.34375 3.046875 -38.640625 3.828125 -38.640625 L 11.1875 -38.640625 C 11.96875 -38.640625 12.648438 -38.34375 13.234375 -37.75 C 13.828125 -37.164062 14.125 -36.476562 14.125 -35.6875 L 14.125 -4.046875 L 18.546875 -4.046875 C 19.328125 -4.046875 20.007812 -3.75 20.59375 -3.15625 C 21.1875 -2.570312 21.484375 -1.882812 21.484375 -1.09375 C 21.484375 -0.3125 21.1875 0.367188 20.59375 0.953125 C 20.007812 1.546875 19.328125 1.84375 18.546875 1.84375 L 3.828125 1.84375 C 3.046875 1.84375 2.359375 1.546875 1.765625 0.953125 C 1.179688 0.367188 0.890625 -0.3125 0.890625 -1.09375 C 0.890625 -1.882812 1.179688 -2.570312 1.765625 -3.15625 C 2.359375 -3.75 3.046875 -4.046875 3.828125 -4.046875 Z M 7.359375 -42.25 C 6.472656 -43.175781 6.03125 -44.300781 6.03125 -45.625 C 6.03125 -46.945312 6.472656 -48.078125 7.359375 -49.015625 C 8.335938 -49.941406 9.488281 -50.40625 10.8125 -50.40625 C 11.257812 -50.40625 11.691406 -50.34375 12.109375 -50.21875 C 12.523438 -50.101562 12.90625 -49.929688 13.25 -49.703125 C 13.59375 -49.484375 13.910156 -49.253906 14.203125 -49.015625 C 14.640625 -48.523438 14.984375 -47.992188 15.234375 -47.421875 C 15.484375 -46.859375 15.609375 -46.257812 15.609375 -45.625 C 15.609375 -44.300781 15.140625 -43.148438 14.203125 -42.171875 C 13.273438 -41.285156 12.144531 -40.84375 10.8125 -40.84375 C 9.488281 -40.84375 8.363281 -41.285156 7.4375 -42.171875 L 7.359375 -42.171875 Z M 7.359375 -42.25 "/></g></g></g><g fill="#4476cf" fill-opacity="1"><g transform="translate(840.902239, 68.896328)"><g><path d="M 7.4375 -3.3125 C 3.75 -7.238281 1.90625 -12.265625 1.90625 -18.390625 C 1.90625 -24.523438 3.75 -29.554688 7.4375 -33.484375 C 11.0625 -37.410156 15.84375 -39.375 21.78125 -39.375 C 27.664062 -39.375 32.453125 -37.410156 36.140625 -33.484375 C 39.816406 -29.554688 41.65625 -24.53125 41.65625 -18.40625 C 41.65625 -15.351562 41.203125 -12.5625 40.296875 -10.03125 C 39.390625 -7.507812 38.003906 -5.269531 36.140625 -3.3125 C 32.453125 0.613281 27.664062 2.578125 21.78125 2.578125 C 15.84375 2.578125 11.0625 0.613281 7.4375 -3.3125 Z M 7.796875 -18.40625 C 7.796875 -13.6875 9.046875 -9.976562 11.546875 -7.28125 C 14.097656 -4.632812 17.507812 -3.3125 21.78125 -3.3125 C 23.9375 -3.3125 25.847656 -3.640625 27.515625 -4.296875 C 29.191406 -4.960938 30.664062 -5.957031 31.9375 -7.28125 C 32.570312 -7.96875 33.125 -8.703125 33.59375 -9.484375 C 34.0625 -10.273438 34.453125 -11.132812 34.765625 -12.0625 C 35.085938 -13 35.332031 -13.992188 35.5 -15.046875 C 35.675781 -16.097656 35.765625 -17.21875 35.765625 -18.40625 C 35.765625 -20.707031 35.445312 -22.773438 34.8125 -24.609375 C 34.175781 -26.453125 33.21875 -28.0625 31.9375 -29.4375 C 30.664062 -30.8125 29.191406 -31.828125 27.515625 -32.484375 C 25.847656 -33.148438 23.9375 -33.484375 21.78125 -33.484375 C 17.507812 -33.484375 14.125 -32.132812 11.625 -29.4375 C 9.070312 -26.644531 7.796875 -22.96875 7.796875 -18.40625 Z M 7.796875 -18.40625 "/></g></g></g><g fill="#4476cf" fill-opacity="1"><g transform="translate(883.945635, 68.896328)"><g><path d="M 8.171875 -4.046875 L 8.171875 -32.75 L 3.75 -32.75 C 2.96875 -32.75 2.28125 -33.039062 1.6875 -33.625 C 1.101562 -34.21875 0.8125 -34.90625 0.8125 -35.6875 C 0.8125 -36.476562 1.101562 -37.164062 1.6875 -37.75 C 2.28125 -38.34375 2.96875 -38.640625 3.75 -38.640625 L 11.109375 -38.640625 C 11.898438 -38.640625 12.585938 -38.34375 13.171875 -37.75 C 13.765625 -37.164062 14.0625 -36.476562 14.0625 -35.6875 L 14.0625 -34.140625 C 17.882812 -37.628906 22.050781 -39.375 26.5625 -39.375 C 31.613281 -39.375 35.585938 -37.925781 38.484375 -35.03125 C 39.910156 -33.5625 40.976562 -31.804688 41.6875 -29.765625 C 42.40625 -27.734375 42.765625 -25.414062 42.765625 -22.8125 L 42.765625 -4.046875 L 47.171875 -4.046875 C 47.953125 -4.046875 48.640625 -3.75 49.234375 -3.15625 C 49.828125 -2.570312 50.125 -1.882812 50.125 -1.09375 C 50.125 -0.3125 49.828125 0.367188 49.234375 0.953125 C 48.640625 1.546875 47.953125 1.84375 47.171875 1.84375 L 33.1875 1.84375 C 32.40625 1.84375 31.71875 1.546875 31.125 0.953125 C 30.539062 0.367188 30.25 -0.3125 30.25 -1.09375 C 30.25 -1.882812 30.539062 -2.570312 31.125 -3.15625 C 31.71875 -3.75 32.40625 -4.046875 33.1875 -4.046875 L 36.875 -4.046875 L 36.875 -22.8125 C 36.875 -24.09375 36.757812 -25.242188 36.53125 -26.265625 C 36.3125 -27.296875 36.019531 -28.179688 35.65625 -28.921875 C 35.289062 -29.660156 34.8125 -30.320312 34.21875 -30.90625 C 33.632812 -31.445312 32.972656 -31.910156 32.234375 -32.296875 C 31.492188 -32.691406 30.644531 -32.988281 29.6875 -33.1875 C 28.738281 -33.382812 27.695312 -33.484375 26.5625 -33.484375 C 25.78125 -33.484375 25.007812 -33.394531 24.25 -33.21875 C 23.488281 -33.050781 22.726562 -32.78125 21.96875 -32.40625 C 21.207031 -32.039062 20.429688 -31.578125 19.640625 -31.015625 C 18.859375 -30.453125 18.101562 -29.78125 17.375 -29 C 16.144531 -27.769531 15.039062 -26.394531 14.0625 -24.875 L 14.0625 -4.046875 L 17.734375 -4.046875 C 18.515625 -4.046875 19.203125 -3.75 19.796875 -3.15625 C 20.390625 -2.570312 20.6875 -1.882812 20.6875 -1.09375 C 20.6875 -0.3125 20.390625 0.367188 19.796875 0.953125 C 19.203125 1.546875 18.515625 1.84375 17.734375 1.84375 L 3.75 1.84375 C 2.96875 1.84375 2.28125 1.546875 1.6875 0.953125 C 1.101562 0.367188 0.8125 -0.3125 0.8125 -1.09375 C 0.8125 -1.882812 1.101562 -2.570312 1.6875 -3.15625 C 2.28125 -3.75 2.96875 -4.046875 3.75 -4.046875 Z M 8.171875 -4.046875 "/></g></g></g><g fill="#4476cf" fill-opacity="1"><g transform="translate(933.096185, 68.896328)"><g><path d="M 21.34375 -3.3125 C 23.351562 -3.3125 25.09375 -3.484375 26.5625 -3.828125 C 28.039062 -4.171875 29.242188 -4.632812 30.171875 -5.21875 C 31.109375 -5.863281 31.769531 -6.53125 32.15625 -7.21875 C 32.550781 -7.90625 32.75 -8.6875 32.75 -9.5625 C 32.75 -10.445312 32.578125 -11.109375 32.234375 -11.546875 C 32.035156 -11.847656 31.800781 -12.117188 31.53125 -12.359375 C 31.257812 -12.609375 30.929688 -12.832031 30.546875 -13.03125 C 30.296875 -13.175781 30.046875 -13.296875 29.796875 -13.390625 C 29.554688 -13.492188 29.300781 -13.59375 29.03125 -13.6875 C 28.757812 -13.78125 28.460938 -13.875 28.140625 -13.96875 C 27.828125 -14.070312 27.5 -14.175781 27.15625 -14.28125 C 25.726562 -14.570312 24.207031 -14.863281 22.59375 -15.15625 C 20.925781 -15.40625 19.234375 -15.648438 17.515625 -15.890625 C 15.742188 -16.140625 14.050781 -16.484375 12.4375 -16.921875 C 11.164062 -17.316406 9.960938 -17.757812 8.828125 -18.25 C 7.597656 -18.84375 6.519531 -19.554688 5.59375 -20.390625 C 5.394531 -20.628906 5.1875 -20.867188 4.96875 -21.109375 C 4.75 -21.359375 4.539062 -21.617188 4.34375 -21.890625 C 4.144531 -22.160156 3.972656 -22.429688 3.828125 -22.703125 C 3.679688 -22.972656 3.535156 -23.253906 3.390625 -23.546875 C 3.085938 -24.179688 2.875 -24.867188 2.75 -25.609375 C 2.632812 -26.347656 2.578125 -27.132812 2.578125 -27.96875 C 2.578125 -29.4375 2.96875 -30.90625 3.75 -32.375 C 4.539062 -33.75 5.671875 -34.976562 7.140625 -36.0625 C 8.554688 -37.09375 10.273438 -37.898438 12.296875 -38.484375 C 14.253906 -39.078125 16.535156 -39.375 19.140625 -39.375 C 20.898438 -39.375 22.515625 -39.148438 23.984375 -38.703125 C 25.460938 -38.265625 26.816406 -37.726562 28.046875 -37.09375 C 28.628906 -36.800781 29.191406 -36.484375 29.734375 -36.140625 C 30.273438 -35.796875 30.765625 -35.453125 31.203125 -35.109375 C 31.253906 -35.054688 31.28125 -35.226562 31.28125 -35.625 L 31.28125 -35.6875 C 31.28125 -36.476562 31.570312 -37.164062 32.15625 -37.75 C 32.75 -38.34375 33.4375 -38.640625 34.21875 -38.640625 C 35.007812 -38.640625 35.695312 -38.34375 36.28125 -37.75 C 36.875 -37.164062 37.171875 -36.476562 37.171875 -35.6875 L 37.171875 -23.921875 C 37.171875 -23.128906 36.875 -22.4375 36.28125 -21.84375 C 35.695312 -21.257812 35.007812 -20.96875 34.21875 -20.96875 C 33.4375 -20.96875 32.75 -21.257812 32.15625 -21.84375 C 31.570312 -22.4375 31.28125 -23.128906 31.28125 -23.921875 L 31.28125 -26.9375 C 30.882812 -27.425781 30.46875 -27.914062 30.03125 -28.40625 C 29.488281 -29 28.898438 -29.515625 28.265625 -29.953125 C 27.179688 -30.878906 25.832031 -31.710938 24.21875 -32.453125 C 22.738281 -33.140625 21.046875 -33.484375 19.140625 -33.484375 C 17.171875 -33.484375 15.476562 -33.285156 14.0625 -32.890625 C 13.71875 -32.796875 13.382812 -32.695312 13.0625 -32.59375 C 12.738281 -32.5 12.441406 -32.390625 12.171875 -32.265625 C 11.910156 -32.148438 11.65625 -32.03125 11.40625 -31.90625 C 11.164062 -31.78125 10.945312 -31.644531 10.75 -31.5 C 9.957031 -30.957031 9.367188 -30.367188 8.984375 -29.734375 C 8.785156 -29.441406 8.648438 -29.144531 8.578125 -28.84375 C 8.503906 -28.550781 8.46875 -28.257812 8.46875 -27.96875 C 8.46875 -27.71875 8.476562 -27.46875 8.5 -27.21875 C 8.519531 -26.976562 8.554688 -26.757812 8.609375 -26.5625 C 8.660156 -26.363281 8.707031 -26.191406 8.75 -26.046875 C 8.800781 -25.898438 8.878906 -25.753906 8.984375 -25.609375 C 9.328125 -25.023438 9.84375 -24.507812 10.53125 -24.0625 C 10.875 -23.863281 11.203125 -23.675781 11.515625 -23.5 C 11.835938 -23.332031 12.207031 -23.1875 12.625 -23.0625 C 13.039062 -22.945312 13.441406 -22.816406 13.828125 -22.671875 C 15.253906 -22.273438 16.78125 -21.953125 18.40625 -21.703125 C 20.070312 -21.410156 21.757812 -21.144531 23.46875 -20.90625 C 23.8125 -20.851562 24.15625 -20.800781 24.5 -20.75 C 24.84375 -20.707031 25.1875 -20.644531 25.53125 -20.5625 C 25.875 -20.488281 26.207031 -20.425781 26.53125 -20.375 C 26.851562 -20.332031 27.1875 -20.273438 27.53125 -20.203125 C 27.875 -20.128906 28.210938 -20.039062 28.546875 -19.9375 C 29.191406 -19.789062 29.816406 -19.617188 30.421875 -19.421875 C 31.035156 -19.234375 31.640625 -19.015625 32.234375 -18.765625 C 32.867188 -18.523438 33.457031 -18.242188 34 -17.921875 C 34.539062 -17.597656 35.03125 -17.242188 35.46875 -16.859375 C 36.445312 -16.023438 37.21875 -14.992188 37.78125 -13.765625 C 38.351562 -12.535156 38.640625 -11.132812 38.640625 -9.5625 C 38.640625 -6.03125 37.117188 -3.085938 34.078125 -0.734375 C 31.128906 1.472656 26.882812 2.578125 21.34375 2.578125 C 19.71875 2.578125 18.144531 2.378906 16.625 1.984375 C 15.207031 1.640625 13.875 1.1875 12.625 0.625 C 11.375 0.0625 10.207031 -0.585938 9.125 -1.328125 C 9.03125 -1.367188 8.921875 -1.4375 8.796875 -1.53125 C 8.671875 -1.632812 8.5625 -1.738281 8.46875 -1.84375 L 8.46875 -1.109375 C 8.46875 -0.316406 8.171875 0.367188 7.578125 0.953125 C 6.992188 1.546875 6.304688 1.84375 5.515625 1.84375 C 4.734375 1.84375 4.046875 1.546875 3.453125 0.953125 C 2.867188 0.367188 2.578125 -0.316406 2.578125 -1.109375 L 2.578125 -12.875 C 2.578125 -13.664062 2.867188 -14.351562 3.453125 -14.9375 C 4.046875 -15.53125 4.734375 -15.828125 5.515625 -15.828125 C 6.304688 -15.828125 6.992188 -15.53125 7.578125 -14.9375 C 8.171875 -14.351562 8.46875 -13.664062 8.46875 -12.875 L 8.46875 -9.78125 C 9.34375 -8.65625 10.347656 -7.648438 11.484375 -6.765625 C 12.023438 -6.328125 12.632812 -5.898438 13.3125 -5.484375 C 14 -5.066406 14.765625 -4.6875 15.609375 -4.34375 C 17.171875 -3.65625 19.082031 -3.3125 21.34375 -3.3125 Z M 21.34375 -3.3125 "/></g></g></g></g></g><g clip-path="url(#2fced6a660)"><g transform="matrix(1, 0, 0, 1, 1258, 170)"><g clip-path="url(#669f8a28df)"><g fill="#4476cf" fill-opacity="1"><g transform="translate(0.732608, 72.818711)"><g><path d="M 25.6875 -49.734375 C 29.25 -49.734375 32.289062 -49.082031 34.8125 -47.78125 C 37.34375 -46.476562 39.253906 -44.648438 40.546875 -42.296875 C 41.835938 -39.953125 42.484375 -37.226562 42.484375 -34.125 C 42.484375 -31.007812 41.835938 -28.285156 40.546875 -25.953125 C 39.253906 -23.617188 37.34375 -21.800781 34.8125 -20.5 C 32.289062 -19.195312 29.25 -18.546875 25.6875 -18.546875 L 16.296875 -18.546875 L 16.296875 0 L 6.46875 0 L 6.46875 -49.734375 Z M 24.390625 -26.328125 C 29.859375 -26.328125 32.59375 -28.925781 32.59375 -34.125 C 32.59375 -39.34375 29.859375 -41.953125 24.390625 -41.953125 L 16.296875 -41.953125 L 16.296875 -26.328125 Z M 24.390625 -26.328125 "/></g></g><g transform="translate(46.1829, 72.818711)"><g><path d="M 16.296875 -49.734375 L 16.296875 -8.234375 L 38.640625 -8.234375 L 38.640625 0 L 6.46875 0 L 6.46875 -49.734375 Z M 16.296875 -49.734375 "/></g></g></g><g fill="#4476cf" fill-opacity="1"><g transform="translate(85.47563, 72.818711)"><g><path d="M 26.359375 0.71875 C 19.515625 0.71875 14.4375 -0.90625 11.125 -4.15625 C 7.8125 -7.414062 6.15625 -12.242188 6.15625 -18.640625 L 6.15625 -49.734375 L 15.78125 -49.734375 L 15.78125 -18.703125 C 15.78125 -15.078125 16.65625 -12.359375 18.40625 -10.546875 C 20.15625 -8.734375 22.804688 -7.828125 26.359375 -7.828125 C 33.410156 -7.828125 36.9375 -11.453125 36.9375 -18.703125 L 36.9375 -49.734375 L 46.578125 -49.734375 L 46.578125 -18.640625 C 46.578125 -12.242188 44.921875 -7.414062 41.609375 -4.15625 C 38.296875 -0.90625 33.210938 0.71875 26.359375 0.71875 Z M 26.359375 0.71875 "/></g></g><g transform="translate(138.206134, 72.818711)"><g><path d="M 22.046875 0.71875 C 18.597656 0.71875 15.53125 0.289062 12.84375 -0.5625 C 10.15625 -1.414062 7.914062 -2.53125 6.125 -3.90625 C 4.332031 -5.289062 2.957031 -6.8125 2 -8.46875 L 7.421875 -15.078125 L 8.265625 -15.078125 C 9.765625 -12.847656 11.664062 -11.078125 13.96875 -9.765625 C 16.269531 -8.453125 18.960938 -7.796875 22.046875 -7.796875 C 24.671875 -7.796875 26.648438 -8.347656 27.984375 -9.453125 C 29.328125 -10.566406 30 -12.097656 30 -14.046875 C 30 -15.222656 29.785156 -16.207031 29.359375 -17 C 28.929688 -17.800781 28.21875 -18.484375 27.21875 -19.046875 C 26.21875 -19.617188 24.867188 -20.109375 23.171875 -20.515625 L 16.765625 -21.984375 C 12.296875 -22.992188 8.96875 -24.6875 6.78125 -27.0625 C 4.59375 -29.4375 3.5 -32.515625 3.5 -36.296875 C 3.5 -39.109375 4.203125 -41.578125 5.609375 -43.703125 C 7.015625 -45.835938 9.0625 -47.492188 11.75 -48.671875 C 14.4375 -49.859375 17.648438 -50.453125 21.390625 -50.453125 C 25.222656 -50.453125 28.503906 -49.945312 31.234375 -48.9375 C 33.972656 -47.925781 36.285156 -46.378906 38.171875 -44.296875 L 33.3125 -37.625 L 32.453125 -37.625 C 31.046875 -39.101562 29.4375 -40.207031 27.625 -40.9375 C 25.8125 -41.675781 23.734375 -42.046875 21.390625 -42.046875 C 18.691406 -42.046875 16.640625 -41.566406 15.234375 -40.609375 C 13.828125 -39.660156 13.125 -38.347656 13.125 -36.671875 C 13.125 -35.109375 13.617188 -33.859375 14.609375 -32.921875 C 15.597656 -31.992188 17.304688 -31.269531 19.734375 -30.75 L 26.265625 -29.390625 C 31.097656 -28.367188 34.601562 -26.640625 36.78125 -24.203125 C 38.957031 -21.765625 40.046875 -18.582031 40.046875 -14.65625 C 40.046875 -11.550781 39.375 -8.847656 38.03125 -6.546875 C 36.695312 -4.242188 34.679688 -2.457031 31.984375 -1.1875 C 29.285156 0.0820312 25.972656 0.71875 22.046875 0.71875 Z M 22.046875 0.71875 "/></g></g></g></g></g></g></svg>