<svg xmlns="http://www.w3.org/2000/svg" xmlns:xlink="http://www.w3.org/1999/xlink" width="300" zoomAndPan="magnify" viewBox="0 0 224.87999 119.999999" height="160" preserveAspectRatio="xMidYMid meet" version="1.0"><defs><g/><clipPath id="44437c4205"><path d="M 131 0.03125 L 211 0.03125 L 211 119.96875 L 131 119.96875 Z M 131 0.03125 " clip-rule="nonzero"/></clipPath><clipPath id="8587dfc42f"><rect x="0" width="80" y="0" height="120"/></clipPath><clipPath id="cbd110a8ea"><path d="M 170 48.839844 L 199 48.839844 L 199 77 L 170 77 Z M 170 48.839844 " clip-rule="nonzero"/></clipPath><clipPath id="2a88c2662b"><path d="M 169.027344 48.839844 L 196 48.839844 L 196 78 L 169.027344 78 Z M 169.027344 48.839844 " clip-rule="nonzero"/></clipPath><clipPath id="7d09ce74e2"><path d="M 11 0.03125 L 99 0.03125 L 99 119.96875 L 11 119.96875 Z M 11 0.03125 " clip-rule="nonzero"/></clipPath><clipPath id="5a78a073c6"><rect x="0" width="88" y="0" height="120"/></clipPath><clipPath id="e2eeee767c"><path d="M 64 0.03125 L 146 0.03125 L 146 119.96875 L 64 119.96875 Z M 64 0.03125 " clip-rule="nonzero"/></clipPath><clipPath id="4cfd5805c9"><rect x="0" width="82" y="0" height="120"/></clipPath></defs><g clip-path="url(#44437c4205)"><g transform="matrix(1, 0, 0, 1, 131, 0.00000000000000791)"><g clip-path="url(#8587dfc42f)"><g fill="#000000" fill-opacity="1"><g transform="translate(1.049217, 109.101114)"><g><path d="M 53.796875 -94.90625 C 62.523438 -94.90625 69.972656 -93.390625 76.140625 -90.359375 L 76.140625 -68.921875 L 76 -68.78125 C 73.382812 -72.800781 67.875 -75.460938 59.46875 -76.765625 C 56.988281 -77.191406 53.859375 -77.40625 50.078125 -77.40625 C 46.296875 -77.40625 42.582031 -76.691406 38.9375 -75.265625 C 35.300781 -73.835938 32.316406 -71.816406 29.984375 -69.203125 C 25.453125 -64.109375 23.1875 -56.847656 23.1875 -47.421875 C 23.1875 -36.441406 26.054688 -28.269531 31.796875 -22.90625 C 36.554688 -18.425781 42.863281 -16.1875 50.71875 -16.1875 C 59.582031 -16.1875 66.769531 -18.078125 72.28125 -21.859375 C 74.289062 -23.210938 76 -24.890625 77.40625 -26.890625 L 77.609375 -26.75 L 77.609375 -7.140625 C 70.460938 -1.210938 60.84375 1.75 48.75 1.75 C 34.507812 1.75 23.347656 -2.78125 15.265625 -11.84375 C 7.515625 -20.476562 3.640625 -31.914062 3.640625 -46.15625 C 3.640625 -61.238281 7.890625 -73.125 16.390625 -81.8125 C 24.984375 -90.539062 37.453125 -94.90625 53.796875 -94.90625 Z M 53.796875 -94.90625 "/></g></g></g></g></g></g><g clip-path="url(#cbd110a8ea)"><path fill="#317cdf" d="M 170.714844 63.175781 C 170.714844 65.34375 172.488281 67.144531 174.652344 67.117188 L 179.539062 67.050781 L 179.355469 69.699219 C 178.742188 78.601562 188.054688 78.792969 188.179688 69.335938 L 188.210938 66.933594 L 191.128906 66.894531 C 200.945312 66.765625 199.78125 57.5 191.496094 58.074219 L 188.324219 58.292969 L 188.398438 52.859375 C 188.425781 50.691406 186.625 48.917969 184.460938 48.917969 C 182.292969 48.917969 180.671875 50.695312 180.519531 52.859375 L 180.105469 58.863281 L 174.648438 59.238281 C 172.488281 59.390625 170.710938 61.011719 170.710938 63.175781 Z M 175.644531 61.117188 C 176.15625 61.058594 178.179688 60.886719 178.699219 60.890625 C 180.515625 60.902344 181.199219 59.605469 177.726562 59.851562 C 177.160156 59.890625 175.308594 59.996094 174.917969 60.289062 C 174.675781 60.46875 174.902344 61.203125 175.644531 61.117188 Z M 181.953125 56.015625 C 182.027344 55.507812 182.386719 53.507812 182.523438 53.003906 C 183.003906 51.253906 181.933594 50.257812 181.265625 53.675781 C 181.160156 54.234375 180.785156 56.050781 180.964844 56.503906 C 181.074219 56.785156 181.839844 56.753906 181.949219 56.015625 Z M 181.953125 56.015625 " fill-opacity="1" fill-rule="evenodd"/></g><g clip-path="url(#2a88c2662b)"><path fill="#2e52a4" d="M 178.5 58.128906 L 178.839844 53.242188 C 178.976562 51.269531 180.167969 49.539062 181.910156 48.84375 C 180.632812 49.695312 179.796875 51.164062 179.683594 52.800781 L 179.320312 58.074219 Z M 195.605469 66.871094 C 194.046875 67.828125 192.089844 68.15625 190.296875 68.179688 L 189.035156 68.195312 L 189.042969 67.765625 L 191.144531 67.734375 C 192.625 67.714844 194.21875 67.488281 195.609375 66.871094 Z M 185.074219 76.925781 C 184.242188 77.472656 183.265625 77.765625 182.226562 77.667969 C 180.769531 77.53125 179.566406 76.664062 178.789062 75.449219 C 177.785156 73.882812 177.550781 71.902344 177.675781 70.085938 L 177.792969 68.34375 L 173.816406 68.394531 C 171.175781 68.429688 169.027344 66.246094 169.027344 63.617188 C 169.027344 61.589844 170.300781 59.964844 172.050781 59.238281 C 170.75 60.082031 169.875 61.488281 169.875 63.175781 C 169.875 65.800781 172.023438 67.988281 174.660156 67.953125 L 178.640625 67.898438 L 178.519531 69.640625 C 178.390625 71.460938 178.628906 73.441406 179.632812 75.003906 C 180.410156 76.21875 181.613281 77.085938 183.070312 77.222656 C 183.777344 77.289062 184.449219 77.175781 185.074219 76.925781 Z M 185.074219 76.925781 " fill-opacity="1" fill-rule="evenodd"/></g><g clip-path="url(#7d09ce74e2)"><g transform="matrix(1, 0, 0, 1, 11, 0.00000000000000791)"><g clip-path="url(#5a78a073c6)"><g fill="#000000" fill-opacity="1"><g transform="translate(0.505346, 109.191234)"><g><path d="M 30.953125 0.421875 C 26.472656 0.140625 21.148438 0 14.984375 0 L 12.75 0 L 12.75 -93.515625 C 15.644531 -93.273438 17.695312 -93.15625 18.90625 -93.15625 L 21.78125 -93.15625 C 25.46875 -93.15625 28.523438 -93.34375 30.953125 -93.71875 L 30.953125 -56.390625 L 63.875 -56.390625 L 63.875 -93.515625 C 67.75 -93.273438 71.519531 -93.15625 75.1875 -93.15625 C 78.851562 -93.15625 81.15625 -93.34375 82.09375 -93.71875 L 82.09375 0.421875 C 79.851562 0.140625 75.414062 0 68.78125 0 L 63.875 0 L 63.875 -39.578125 L 30.953125 -39.578125 Z M 30.953125 0.421875 "/></g></g></g></g></g></g><g clip-path="url(#e2eeee767c)"><g transform="matrix(1, 0, 0, 1, 64, 0.00000000000000791)"><g clip-path="url(#4cfd5805c9)"><g fill="#000000" fill-opacity="1"><g transform="translate(0.560693, 109.191234)"><g><path d="M 42.171875 -36.21875 C 40.765625 -36.125 39.265625 -36.078125 37.671875 -36.078125 C 36.085938 -36.078125 33.734375 -36.191406 30.609375 -36.421875 L 30.609375 0 L 12.046875 0 L 12.046875 -93.65625 C 18.585938 -94.488281 26.617188 -94.90625 36.140625 -94.90625 C 49.117188 -94.90625 58.796875 -92.507812 65.171875 -87.71875 C 71.546875 -82.9375 74.734375 -75.550781 74.734375 -65.5625 C 74.734375 -57.8125 71.816406 -51.179688 65.984375 -45.671875 C 64.066406 -43.898438 61.875 -42.359375 59.40625 -41.046875 L 73.6875 -10.921875 C 76.488281 -4.710938 78.632812 -1.023438 80.125 0.140625 L 79.78125 0.484375 C 75.25 -0.253906 68.128906 -0.226562 58.421875 0.5625 Z M 37.46875 -78.375 C 35.09375 -78.375 32.804688 -78.257812 30.609375 -78.03125 L 30.609375 -51.265625 C 32.898438 -50.941406 35.582031 -50.78125 38.65625 -50.78125 C 41.738281 -50.78125 44.332031 -51.046875 46.4375 -51.578125 C 48.539062 -52.117188 50.363281 -52.953125 51.90625 -54.078125 C 55.21875 -56.546875 56.875 -60.253906 56.875 -65.203125 C 56.875 -70.160156 55.144531 -73.644531 51.6875 -75.65625 C 48.46875 -77.46875 43.726562 -78.375 37.46875 -78.375 Z M 37.46875 -78.375 "/></g></g></g></g></g></g></svg>